<?xml version="1.0" encoding="UTF-8" standalone="no"?>
<svg xmlns="http://www.w3.org/2000/svg" viewBox="0 0 500 600">
  <!-- Simplified India Map SVG with state outlines -->
  <!-- Major States -->
  <path id="rajasthan" d="M100,150 L150,150 L170,200 L130,250 L80,240 L70,200 Z" fill="#eee" stroke="#000"/>
  <path id="gujarat" d="M70,200 L80,240 L60,300 L30,290 L20,250 L40,220 Z" fill="#eee" stroke="#000"/>
  <path id="maharashtra" d="M130,250 L170,200 L210,210 L230,270 L180,320 L120,300 L60,300 L80,240 Z" fill="#eee" stroke="#000"/>
  <path id="madhya_pradesh" d="M170,200 L150,150 L200,130 L240,150 L250,200 L210,210 Z" fill="#eee" stroke="#000"/>
  <path id="uttar_pradesh" d="M150,150 L200,130 L230,100 L270,120 L280,150 L240,150 L200,130 Z" fill="#eee" stroke="#000"/>
  <path id="bihar" d="M280,150 L310,160 L320,180 L290,190 L250,200 L240,150 Z" fill="#eee" stroke="#000"/>
  <path id="west_bengal" d="M320,180 L350,170 L370,210 L340,240 L310,220 L290,190 Z" fill="#eee" stroke="#000"/>
  <path id="odisha" d="M290,190 L310,220 L280,270 L240,260 L230,220 L250,200 Z" fill="#eee" stroke="#000"/>
  <path id="andhra_pradesh" d="M230,270 L240,260 L280,270 L270,320 L220,350 L190,320 L180,320 Z" fill="#eee" stroke="#000"/>
  <path id="telangana" d="M230,270 L210,210 L250,200 L230,220 L240,260 Z" fill="#eee" stroke="#000"/>
  <path id="karnataka" d="M180,320 L190,320 L220,350 L200,380 L150,370 L120,330 L120,300 Z" fill="#eee" stroke="#000"/>
  <path id="tamil_nadu" d="M220,350 L270,320 L280,350 L250,410 L200,380 Z" fill="#eee" stroke="#000"/>
  <path id="kerala" d="M200,380 L150,370 L170,430 L210,440 L250,410 Z" fill="#eee" stroke="#000"/>
  <path id="punjab" d="M150,100 L180,110 L190,90 L170,80 L150,90 Z" fill="#eee" stroke="#000"/>
  <path id="haryana" d="M150,100 L180,110 L200,130 L150,150 L140,120 Z" fill="#eee" stroke="#000"/>
  <path id="himachal_pradesh" d="M170,80 L190,90 L180,110 L160,100 L150,90 Z" fill="#eee" stroke="#000"/>
  <path id="jammu_and_kashmir" d="M120,50 L180,40 L190,90 L170,80 L150,90 L130,70 Z" fill="#eee" stroke="#000"/>
  <path id="assam" d="M350,170 L400,160 L410,180 L380,210 L370,210 Z" fill="#eee" stroke="#000"/>
  <path id="arunachal_pradesh" d="M400,160 L430,140 L450,160 L410,180 Z" fill="#eee" stroke="#000"/>
  <path id="meghalaya" d="M370,210 L380,210 L375,225 L365,225 Z" fill="#eee" stroke="#000"/>
  <path id="tripura" d="M380,230 L390,240 L380,250 L370,240 Z" fill="#eee" stroke="#000"/>
  <path id="mizoram" d="M395,250 L405,260 L395,270 L385,260 Z" fill="#eee" stroke="#000"/>
  <path id="manipur" d="M410,230 L420,240 L410,250 L400,240 Z" fill="#eee" stroke="#000"/>
  <path id="nagaland" d="M410,200 L425,195 L430,210 L415,215 Z" fill="#eee" stroke="#000"/>
  <path id="sikkim" d="M350,160 L360,155 L365,165 L355,170 Z" fill="#eee" stroke="#000"/>
  <path id="uttarakhand" d="M180,110 L230,100 L200,130 Z" fill="#eee" stroke="#000"/>
  <path id="jharkhand" d="M280,190 L310,180 L320,180 L310,220 Z" fill="#eee" stroke="#000"/>
  <path id="chhattisgarh" d="M230,220 L240,260 L280,270 L240,260 L230,270 L210,210 Z" fill="#eee" stroke="#000"/>
  <path id="goa" d="M120,330 L130,340 L120,350 L110,340 Z" fill="#eee" stroke="#000"/>
  
  <!-- Union Territories -->
  <circle id="delhi" cx="160" cy="130" r="5" fill="#eee" stroke="#000"/>
  <circle id="puducherry" cx="240" cy="360" r="3" fill="#eee" stroke="#000"/>
  <circle id="chandigarh" cx="165" cy="95" r="3" fill="#eee" stroke="#000"/>
  
  <!-- Labels -->
  <g font-family="Arial" font-size="8" fill="#333">
    <text x="100" y="210">Rajasthan</text>
    <text x="50" y="270">Gujarat</text>
    <text x="130" y="280">Maharashtra</text>
    <text x="180" y="180">MP</text>
    <text x="170" y="130">UP</text>
    <text x="300" y="170">Bihar</text>
    <text x="340" y="210">WB</text>
    <text x="270" y="230">Odisha</text>
    <text x="230" y="310">AP</text>
    <text x="220" y="240">Telangana</text>
    <text x="170" y="350">Karnataka</text>
    <text x="240" y="380">TN</text>
    <text x="180" y="410">Kerala</text>
    <text x="160" y="100">Punjab</text>
    <text x="170" y="140">Haryana</text>
    <text x="170" y="70">HP</text>
    <text x="140" y="60">J&K</text>
    <text x="380" y="180">Assam</text>
  </g>
</svg>